<svg width="94" height="91" viewBox="0 0 94 91" fill="none" xmlns="http://www.w3.org/2000/svg">
<g filter="url(#filter0_d)">
<path d="M19.2478 84.2212C19.071 84.2212 18.8912 84.2167 18.707 84.2092C16.8704 84.1837 8.37803 83.4272 4.36779 80.4476C2.06232 78.7369 1.40169 76.3955 2.55667 74.0271L5.32054 68.351C5.64412 67.6874 6.02761 67.0043 6.4201 66.3032C7.11369 65.0688 7.83124 63.791 8.20126 62.5761C8.62969 61.1665 8.44394 59.7253 8.22672 58.058C8.13534 57.354 8.04396 56.6424 7.99453 55.9173C7.56459 49.7005 8.02299 43.7159 8.57427 37.6204C8.6282 37.0287 9.17498 31.8664 12.1051 29.6598C12.7792 28.9513 15.9446 25.693 19.0201 23.7501L20.942 22.5367L25.135 34.1195L24.3605 36.6077C23.7748 38.4937 23.1531 40.4906 23.1232 40.5865C22.894 41.3235 23.8317 43.1616 24.6886 43.6709C24.8309 43.7548 24.9268 43.7653 24.9957 43.7653C26.7005 43.7653 29.9242 38.5027 30.7586 35.5606C31.8447 31.7256 32.378 30.2396 32.6477 29.6194C32.9967 27.7184 34.7224 24.4991 39.2914 23.8954C39.2824 23.8954 39.597 23.843 40.0869 23.843C42.2111 23.843 44.19 24.8002 45.5277 26.472C45.9427 26.9499 47.5066 29.0366 46.5374 32.3877L43.1429 46.7509C41.9175 51.7633 38.8915 63.388 36.5336 66.2148C36.0737 67.0522 34.3344 70.0063 31.244 72.9335C28.7827 76.2232 26.0833 80.2679 25.7657 81.4393L25.6294 81.9427L25.2489 82.2977C25.0376 82.4954 23.0782 84.2212 19.2478 84.2212ZM19.0979 28.1888C16.7535 30.0448 14.6817 32.2589 14.6563 32.2874L14.3582 32.545C13.0264 33.4648 12.3403 36.5852 12.2175 37.9514C11.6602 44.1203 11.2318 49.711 11.6437 55.6687C11.6887 56.3188 11.7726 56.957 11.855 57.5906C12.1021 59.5006 12.3598 61.478 11.7022 63.6412C11.2168 65.2381 10.3629 66.7586 9.60941 68.0979C9.25288 68.7315 8.90234 69.3517 8.60872 69.9554L5.84485 75.6315C5.61715 76.0988 5.35949 76.6291 6.55043 77.513C9.35025 79.5952 16.3595 80.5195 18.8103 80.554C18.9931 80.5615 19.1219 80.5645 19.2478 80.5645C20.942 80.5645 21.9936 80.0926 22.476 79.8095C23.6325 77.0486 27.5738 71.7336 28.4127 70.6146L28.6254 70.3794C31.7863 67.4192 33.3832 64.3543 33.3997 64.3228L33.5435 64.0442L33.7742 63.824C34.9501 62.618 37.708 53.5774 39.5865 45.897L43.0006 31.4605C43.4814 29.7917 42.8388 28.9587 42.7639 28.8704C41.8126 27.6689 40.6816 27.5027 40.0854 27.5027C39.9491 27.5027 39.8547 27.5116 39.8172 27.5161C36.5156 27.9506 36.2339 30.3265 36.2324 30.3504L36.1875 30.7849L35.9523 31.1519C35.7546 31.5653 34.9157 34.3037 34.276 36.5598C33.7981 38.2481 30.0531 47.4235 24.9942 47.4235C24.2317 47.4235 23.4992 47.2198 22.8191 46.8168C20.6859 45.5495 18.8268 42.083 19.6268 39.5124C19.6268 39.5124 20.2649 37.4601 20.8671 35.5231L21.2761 34.2094L19.0979 28.1888Z" fill="#282D33"/>
<path d="M54.2341 68.6237C51.0688 68.6237 48.2809 66.6043 47.2952 63.5963C46.7424 61.8855 46.8428 60.0265 47.5589 58.3921C46.0159 57.5023 44.8354 56.0612 44.2692 54.3489C44.0475 53.7003 43.9261 53.0337 43.9097 52.3715C43.8497 50.9439 44.2153 49.5223 44.9688 48.2729C45.8796 46.7764 47.2907 45.6573 48.9446 45.1225C49.6801 44.8799 50.4471 44.757 51.2186 44.757C54.3809 44.757 57.1718 46.7749 58.1649 49.7814C58.7282 51.4862 58.6323 53.3512 57.9133 55.0006C59.4637 55.8964 60.6427 57.3405 61.194 59.0498C61.8052 60.9013 61.6539 62.8847 60.77 64.6269C59.8892 66.3661 58.3837 67.6545 56.5306 68.2567C55.7861 68.5008 55.0131 68.6237 54.2341 68.6237ZM51.2186 46.1652C50.5969 46.1652 49.9782 46.264 49.382 46.4603C48.0457 46.8932 46.9072 47.795 46.1732 49.0009C45.5635 50.0121 45.2684 51.1611 45.3178 52.3221C45.3313 52.8464 45.4302 53.3857 45.6039 53.898C46.1268 55.4784 47.2862 56.7668 48.7873 57.4394L49.4928 57.754L49.1138 58.4266C48.3019 59.8662 48.1281 61.5919 48.636 63.1604C49.4299 65.5842 51.6815 67.2155 54.2356 67.2155C54.8633 67.2155 55.4895 67.1152 56.0947 66.9174C57.5912 66.4306 58.8046 65.3909 59.5162 63.9888C60.2277 62.5821 60.3491 60.9837 59.8577 59.4842C59.3514 57.9187 58.1964 56.6319 56.6879 55.9503L55.9898 55.6342L56.3643 54.9646C57.1762 53.51 57.347 51.7813 56.8317 50.2218C56.0243 47.795 53.7712 46.1652 51.2186 46.1652Z" fill="#282D33"/>
<path d="M66.2127 19.1056L63.5044 10.8469L62.2148 11.2698L64.9231 19.5285L66.2127 19.1056Z" fill="#282D33"/>
<path d="M68.7714 51.8644L56.1089 13.251L54.7851 13.6851L67.4476 52.2985L68.7714 51.8644Z" fill="#282D33"/>
<path d="M76.3663 49.3978L69.0845 27.1923L67.7507 27.6297L75.0326 49.8352L76.3663 49.3978Z" fill="#282D33"/>
<path d="M90.7232 59.9695C89.8648 57.3375 88.9915 54.7039 88.1331 52.0719L84.6831 41.5692L78.8258 23.6887C76.7556 17.382 74.6868 11.0737 72.6165 4.7805C71.4196 1.10583 68.0969 -0.73825 64.5496 0.275919C63.3392 0.627956 62.1842 1.02194 60.9453 1.4309C60.4105 1.61366 59.8607 1.79642 59.2975 1.99416L28.7316 12.004C24.4937 13.3972 22.7904 16.7348 24.1701 20.9578L28.3511 33.7C29.0267 31.3631 29.548 29.7572 29.942 28.7865C29.9989 28.5183 30.0828 28.2367 30.1817 27.9701L27.5212 19.8612C26.7183 17.4539 27.3939 16.1446 29.8297 15.3416L60.3955 5.33178C60.9588 5.13404 61.522 4.95128 62.0703 4.76852C63.2673 4.35956 64.3938 3.98055 65.5203 3.65698C67.2251 3.16113 68.6752 4.0195 69.2804 5.87856C71.3506 12.1718 73.4194 18.48 75.4897 24.7732L81.347 42.6673L84.797 53.17C85.6554 55.802 86.5152 58.4221 87.3736 61.0541C88.1061 63.2652 87.3871 64.6584 85.1206 65.4044C84.1498 65.728 83.1776 66.0381 82.1634 66.3751L50.0202 76.9063C47.6128 77.6943 46.2616 77.0052 45.4721 74.6398L41.4874 62.4757C40.7264 64.5026 39.9953 66.0665 39.3197 67.1496L42.136 75.7243C43.5157 79.9338 46.8668 81.6371 51.1047 80.2574L81.6706 70.2326L83.2615 69.7112C84.2757 69.3727 85.2464 69.0641 86.2321 68.7405C90.3142 67.3758 92.0325 64.0247 90.7232 59.9695Z" fill="#282D33"/>
</g>
<defs>
<filter id="filter0_d" x="0" y="0" width="93.1548" height="90.2212" filterUnits="userSpaceOnUse" color-interpolation-filters="sRGB">
<feFlood flood-opacity="0" result="BackgroundImageFix"/>
<feColorMatrix in="SourceAlpha" type="matrix" values="0 0 0 0 0 0 0 0 0 0 0 0 0 0 0 0 0 0 127 0"/>
<feOffset dy="4"/>
<feGaussianBlur stdDeviation="1"/>
<feColorMatrix type="matrix" values="0 0 0 0 0 0 0 0 0 0 0 0 0 0 0 0 0 0 0.05 0"/>
<feBlend mode="normal" in2="BackgroundImageFix" result="effect1_dropShadow"/>
<feBlend mode="normal" in="SourceGraphic" in2="effect1_dropShadow" result="shape"/>
</filter>
</defs>
</svg>
