<svg width="73" height="100" viewBox="0 0 73 100" fill="none" xmlns="http://www.w3.org/2000/svg">
<g filter="url(#filter0_d)">
<path d="M61.7319 82.247C67.3437 75.7921 70.3139 67.4578 70.0492 58.9086C69.7845 50.3594 66.3045 42.2248 60.3041 36.1294C59.7676 35.593 59.2312 35.0744 58.6623 34.5541L58.6542 34.5444C57.5825 33.6022 56.4529 32.7281 55.2719 31.927C56.4384 28.4237 57.0551 24.7608 57.1 21.0686C57.1 15.4809 54.8803 10.122 50.9292 6.17085C46.978 2.21972 41.6192 0 36.0314 0C30.4437 0 25.0848 2.21972 21.1337 6.17085C17.1825 10.122 14.9628 15.4809 14.9628 21.0686C15.0071 24.7604 15.6221 28.4232 16.7861 31.927C11.1335 35.7943 6.78317 41.2813 4.30695 47.6669C4.29075 47.7107 4.25671 47.7447 4.24375 47.7901C4.23078 47.8355 4.24375 47.8403 4.24375 47.8646C1.91628 53.9412 1.38602 60.5591 2.71622 66.9288C4.04642 73.2984 7.18092 79.151 11.7458 83.7882C14.7092 86.8325 18.2241 89.2859 22.1034 91.018C26.2839 92.9147 30.8139 93.9192 35.4042 93.9676C35.6125 93.9898 35.8219 94 36.0314 93.9984C36.1829 94.003 36.3345 93.9976 36.4852 93.9822C41.3191 93.9459 46.0869 92.8547 50.4553 90.7846H50.4634C54.1518 89.0574 57.4982 86.6785 60.3414 83.7623C60.8065 83.2761 61.27 82.7899 61.7027 82.281L61.7157 82.2648L61.7319 82.247ZM66.7219 57.4282H66.6879C63.9052 57.4282 62.2262 60.7116 61.0658 60.1314C59.0173 59.1072 58.7158 57.1138 60.1712 54.2031C61.7918 50.9617 59.9216 47.9667 58.2718 45.3267C56.6657 42.7563 56.019 42.2312 57.9638 38.3692C63.0411 43.4894 66.1435 50.2406 66.7219 57.4282ZM54.0289 44.4823C54.4697 45.3623 55.0013 46.2197 55.5231 47.0478C57.1146 49.5939 58.0254 51.2486 57.2702 52.7574C55.1082 57.0846 56.0709 60.428 58.3285 62.2124C58.7278 62.5313 59.1597 62.8073 59.6169 63.0357C60.1594 63.3152 60.7587 63.4665 61.3689 63.4781C62.2505 63.2382 61.6395 64.2884 65.8467 61.0828C66.6571 60.4653 66.6571 60.7424 66.8191 60.7181C66.6717 66.8419 64.6963 72.7816 61.1468 77.774C59.9503 76.0796 58.2967 74.7604 56.3788 73.9703C53.5994 72.6527 49.2706 71.4485 48.8363 70.5847C48.2318 69.3773 48.6742 68.0759 49.4748 66.076C50.1406 64.6663 50.5285 63.1416 50.6174 61.5852C50.4784 59.5686 49.6702 57.6562 48.3209 56.1511C46.9543 54.4142 45.9282 52.4347 45.2967 50.3167C48.9248 45.6599 51.9093 40.5358 54.1699 35.0825C54.6129 35.4066 55.0515 35.7475 55.4859 36.1051C54.1358 38.5426 52.7696 41.9752 54.0289 44.4823ZM36.0314 3.24132C40.7578 3.2469 45.289 5.12692 48.6311 8.46897C51.9731 11.811 53.8531 16.3422 53.8587 21.0686C53.812 24.8148 53.1297 28.5259 51.841 32.0437C51.6044 32.7309 51.344 33.4235 51.0598 34.1214C48.7916 39.5013 45.7921 44.5427 42.1462 49.1028C40.2458 51.5479 38.2041 53.8797 36.0314 56.0863C34.8289 54.8837 32.8095 52.6829 30.9976 50.4771C30.5655 49.9456 30.1144 49.3773 29.6444 48.7722C25.6462 43.7268 22.4655 38.0845 20.2186 32.0518C18.9309 28.531 18.2497 24.8173 18.2041 21.0686C18.2097 16.3422 20.0897 11.811 23.4318 8.46897C26.7738 5.12692 31.305 3.2469 36.0314 3.24132ZM37.4673 59.2206C37.5887 59.4498 37.6521 59.7052 37.6521 59.9645C37.6521 60.3943 37.4813 60.8066 37.1774 61.1105C36.8735 61.4144 36.4612 61.5852 36.0314 61.5852C35.6016 61.5852 35.1894 61.4144 34.8854 61.1105C34.5815 60.8066 34.4108 60.3943 34.4108 59.9645C34.4108 59.7052 34.4742 59.4498 34.5955 59.2206C34.8208 59.4346 34.9456 59.5448 34.9456 59.5448C35.2434 59.8135 35.6303 59.9623 36.0314 59.9623C36.4326 59.9623 36.8195 59.8135 37.1173 59.5448C37.1173 59.5448 37.2421 59.4346 37.4673 59.2206ZM22.9251 58.3438C21.909 58.3633 19.8896 58.7749 19.8264 67.6432C19.4083 68.319 18.8038 68.9397 18.5121 68.9025C18.504 68.9025 17.6418 68.7809 16.4684 65.8443C15.6258 63.5679 14.0977 61.6089 12.0948 60.2377C10.0919 58.8664 7.71288 58.1504 5.28584 58.1883C5.44086 55.4573 5.96029 52.7593 6.83033 50.166C9.43912 50.998 12.2689 50.7859 14.7246 49.5744C15.6562 48.9562 16.4455 48.1466 17.0399 47.1996C17.6342 46.2526 18.0201 45.1898 18.1717 44.082C18.5185 42.369 18.1912 39.9202 15.1103 37.426C15.9916 36.5944 16.9213 35.8157 17.8946 35.0938C20.4072 41.0609 23.7442 46.646 27.8082 51.6862C27.0432 53.1399 24.3043 57.6421 22.9251 58.3438ZM12.843 39.7662C14.1525 40.7661 15.274 42.0546 14.9952 43.4386C14.9263 44.1052 14.7174 44.7497 14.3823 45.3301C14.0472 45.9104 13.5933 46.4135 13.0504 46.8064C11.484 47.5224 9.70757 47.6315 8.06527 47.1127C9.29716 44.4473 10.9062 41.9731 12.843 39.7662ZM35.6117 90.7409C31.9925 90.7106 28.4083 90.0293 25.0304 88.7296C25.5992 87.8674 26.4355 87.109 27.416 87.4331C28.4586 87.8614 29.6199 87.9037 30.6909 87.5522C31.7619 87.2008 32.6723 86.4787 33.2585 85.5159C33.6395 84.8351 34.2636 84.3233 35.0058 84.0829C35.748 83.8425 36.5537 83.8912 37.2615 84.2193C38.2744 84.4722 39.216 84.6861 40.0912 84.8854C43.0943 85.571 46.1022 86.0653 47.5819 88.5044C43.784 90.0513 39.7119 90.8122 35.6117 90.7409ZM50.5428 87.1203C48.201 83.362 45.5091 82.8013 40.8108 81.7316C39.955 81.5371 39.028 81.3281 38.0459 81.0834C36.7405 80.6004 35.3103 80.5721 33.9868 81.003C32.6633 81.4339 31.5239 82.2987 30.7529 83.4576C29.8778 84.5192 29.6687 84.7704 28.4321 84.3587C27.7403 84.1249 27.0037 84.0544 26.28 84.1525C25.5564 84.2506 24.8652 84.5148 24.2605 84.9243C23.3489 85.5776 22.5911 86.4222 22.0402 87.3991C19.0811 85.8814 16.3864 83.8959 14.0601 81.5193C8.75107 76.1461 5.62109 68.9964 5.27449 61.4507C7.0561 61.3959 8.80898 61.909 10.2799 62.9159C11.7507 63.9227 12.8634 65.371 13.4572 67.0517C13.9434 68.2801 15.4458 72.0206 18.3775 72.1422H18.5218C19.5905 71.971 20.5873 71.4958 21.3931 70.7733C22.199 70.0508 22.7798 69.1115 23.0661 68.0678C23.0073 65.8506 23.2355 63.6352 23.7452 61.4766C26.0984 60.7538 28.7903 56.5125 30.0155 54.3894L30.0333 54.3586C30.1727 54.5207 31.4919 55.9793 32.3023 56.8561C31.7083 57.5653 31.329 58.4293 31.2089 59.3466C31.0889 60.2639 31.233 61.1964 31.6243 62.0346C32.0157 62.8728 32.6381 63.582 33.4184 64.0789C34.1988 64.5758 35.1047 64.8397 36.0298 64.8397C36.9549 64.8397 37.8608 64.5758 38.6412 64.0789C39.4215 63.582 40.0439 62.8728 40.4353 62.0346C40.8266 61.1964 40.9707 60.2639 40.8507 59.3466C40.7306 58.4293 40.3513 57.5653 39.7573 56.8561C41.0198 55.5044 42.399 53.9243 42.9306 53.2906C44.5318 57.292 47.3761 59.3762 47.3761 61.5852C47.2659 62.7271 46.9543 63.8404 46.4555 64.8735C45.6452 66.9074 44.629 69.4389 45.9272 72.0368C47.1621 74.4921 51.3613 75.2279 54.9008 76.8696C56.6835 77.6994 58.4565 78.7609 58.7904 80.6944C56.4264 83.2896 53.6373 85.4627 50.5428 87.1203ZM36.0314 22.6893C37.6341 22.6893 39.2008 22.214 40.5334 21.3236C41.866 20.4332 42.9046 19.1677 43.5179 17.687C44.1312 16.2063 44.2917 14.577 43.979 13.0051C43.6664 11.4332 42.8946 9.98932 41.7613 8.85605C40.6281 7.72279 39.1842 6.95102 37.6123 6.63835C36.0404 6.32568 34.4111 6.48616 32.9304 7.09948C31.4497 7.7128 30.1842 8.75142 29.2938 10.084C28.4034 11.4166 27.9281 12.9833 27.9281 14.586C27.9307 16.7343 28.7852 18.7939 30.3044 20.313C31.8235 21.8321 33.8831 22.6867 36.0314 22.6893ZM36.0314 9.72397C36.993 9.72397 37.933 10.0091 38.7326 10.5434C39.5321 11.0776 40.1553 11.8369 40.5233 12.7254C40.8913 13.6138 40.9876 14.5914 40.8 15.5345C40.6124 16.4776 40.1493 17.3439 39.4694 18.0239C38.7894 18.7039 37.9231 19.1669 36.9799 19.3545C36.0368 19.5421 35.0592 19.4458 34.1708 19.0779C33.2824 18.7099 32.5231 18.0867 31.9888 17.2871C31.4546 16.4876 31.1694 15.5476 31.1694 14.586C31.1694 13.2965 31.6817 12.0598 32.5935 11.148C33.5053 10.2362 34.7419 9.72397 36.0314 9.72397Z" fill="#282D33"/>
</g>
<defs>
<filter id="filter0_d" x="0" y="0" width="72.0655" height="100" filterUnits="userSpaceOnUse" color-interpolation-filters="sRGB">
<feFlood flood-opacity="0" result="BackgroundImageFix"/>
<feColorMatrix in="SourceAlpha" type="matrix" values="0 0 0 0 0 0 0 0 0 0 0 0 0 0 0 0 0 0 127 0"/>
<feOffset dy="4"/>
<feGaussianBlur stdDeviation="1"/>
<feColorMatrix type="matrix" values="0 0 0 0 0 0 0 0 0 0 0 0 0 0 0 0 0 0 0.05 0"/>
<feBlend mode="normal" in2="BackgroundImageFix" result="effect1_dropShadow"/>
<feBlend mode="normal" in="SourceGraphic" in2="effect1_dropShadow" result="shape"/>
</filter>
</defs>
</svg>
