<svg width="71" height="102" viewBox="0 0 71 102" fill="none" xmlns="http://www.w3.org/2000/svg">
<g filter="url(#filter0_d)">
<path d="M41.0005 78H26.0005C25.6027 78 25.2211 78.158 24.9398 78.4393C24.6585 78.7206 24.5005 79.1022 24.5005 79.5C24.5005 79.8978 24.6585 80.2794 24.9398 80.5607C25.2211 80.842 25.6027 81 26.0005 81H41.0005C41.3983 81 41.7798 80.842 42.0611 80.5607C42.3425 80.2794 42.5005 79.8978 42.5005 79.5C42.5005 79.1022 42.3425 78.7206 42.0611 78.4393C41.7798 78.158 41.3983 78 41.0005 78Z" fill="#282D33"/>
<path d="M67.4456 36.345C67.2768 36.1984 67.0775 36.0913 66.8621 36.0316C66.6467 35.9719 66.4207 35.9611 66.2006 36C57.9805 37.65 54.7256 46.305 54.5906 46.68C54.5312 46.8435 54.5008 47.0161 54.5006 47.19V69.255C52.4581 69.5157 50.5728 70.4876 49.1756 72C44.6756 76.98 45.4706 86.67 45.5006 87.075C45.5364 87.4728 45.7287 87.8401 46.0354 88.0961C46.1872 88.2229 46.3625 88.3185 46.5512 88.3775C46.74 88.4365 46.9386 88.4577 47.1356 88.44C47.3325 88.4223 47.5241 88.3659 47.6993 88.2741C47.8745 88.1824 48.0299 88.057 48.1567 87.9052C48.2834 87.7534 48.379 87.5781 48.438 87.3893C48.497 87.2005 48.5183 87.002 48.5006 86.805C48.5006 86.715 47.7506 78.015 51.3956 74.025C51.9822 73.3994 52.698 72.909 53.4932 72.5878C54.2884 72.2666 55.144 72.1223 56.0006 72.165C56.3984 72.165 56.7799 72.007 57.0612 71.7257C57.3425 71.4443 57.5006 71.0628 57.5006 70.665V47.505C57.9656 46.38 60.2756 41.4 65.0006 39.51V77.88C64.8206 78.915 63.1256 88.08 56.5706 93.33C56.2615 93.5775 56.0628 93.9371 56.0178 94.3305C55.9729 94.7239 56.0853 95.1191 56.3306 95.43C56.4702 95.6068 56.648 95.7498 56.8505 95.8485C57.0531 95.9472 57.2752 95.999 57.5006 96C57.8389 95.998 58.1666 95.8817 58.4305 95.67C66.3055 89.37 68.0006 78.66 68.0006 78.21C68.008 78.1402 68.008 78.0698 68.0006 78V37.5C67.9991 37.2784 67.9486 37.0599 67.8526 36.8602C67.7566 36.6605 67.6176 36.4846 67.4456 36.345Z" fill="#282D33"/>
<path d="M14.7805 82.875C15.1602 82.8969 15.5408 82.8969 15.9205 82.875C19.3555 82.95 21.5005 81 21.5005 78C21.5007 76.8656 21.2389 75.7465 20.7355 74.73C21.2562 73.9163 21.5225 72.9658 21.5005 72C21.4715 70.1369 20.7802 68.3449 19.5505 66.945C20.18 66.5034 20.6884 65.9107 21.0291 65.2214C21.3698 64.5321 21.5319 63.7683 21.5005 63C21.4715 61.1369 20.7802 59.3449 19.5505 57.945C20.18 57.5034 20.6884 56.9107 21.0291 56.2214C21.3698 55.5321 21.5319 54.7683 21.5005 54C21.5005 46.95 11.8255 44.07 11.4205 43.95C11.0386 43.8386 10.6281 43.8835 10.2793 44.0748C9.93044 44.2661 9.6719 44.5881 9.56051 44.97C9.44912 45.3519 9.494 45.7624 9.68529 46.1113C9.87658 46.4601 10.1986 46.7186 10.5805 46.83C10.5805 46.83 18.5005 49.2 18.5005 54C18.5005 54.585 18.5005 55.95 15.9205 55.95C11.8105 55.95 5.00051 52.095 5.00051 48C4.97238 46.537 5.38701 45.0996 6.19003 43.8763C6.99305 42.6531 8.14697 41.701 9.50051 41.145V42C9.50051 42.3978 9.65854 42.7794 9.93985 43.0607C10.2212 43.342 10.6027 43.5 11.0005 43.5C11.3983 43.5 11.7799 43.342 12.0612 43.0607C12.3425 42.7794 12.5005 42.3978 12.5005 42V12H54.5005V39C54.5005 39.3978 54.6585 39.7794 54.9398 40.0607C55.2212 40.342 55.6027 40.5 56.0005 40.5C56.3983 40.5 56.7799 40.342 57.0612 40.0607C57.3425 39.7794 57.5005 39.3978 57.5005 39V4.5C57.5005 3.30653 57.0264 2.16193 56.1825 1.31802C55.3386 0.474106 54.194 0 53.0005 0L14.0005 0C12.807 0 11.6624 0.474106 10.8185 1.31802C9.97461 2.16193 9.50051 3.30653 9.50051 4.5V37.905C7.32821 38.5526 5.42383 39.8859 4.07199 41.7055C2.72015 43.525 1.99345 45.7332 2.00051 48C2.02606 49.4169 2.4582 50.7967 3.24551 51.975C2.41154 53.5175 1.98314 55.2466 2.00051 57C2.02606 58.4169 2.4582 59.7967 3.24551 60.975C2.41154 62.5175 1.98314 64.2466 2.00051 66C2.00977 66.8856 2.18796 67.7612 2.52551 68.58C2.17184 69.6853 1.99467 70.8395 2.00051 72C2.00051 76.5 6.63551 80.325 11.2555 82.02C13.0506 87.3378 16.273 92.0599 20.5705 95.67C20.8344 95.8817 21.1622 95.998 21.5005 96C21.7258 95.999 21.948 95.9472 22.1505 95.8485C22.3531 95.7498 22.5308 95.6068 22.6705 95.43C22.9158 95.1191 23.0282 94.7239 22.9832 94.3306C22.9383 93.9372 22.7396 93.5775 22.4305 93.33C19.0747 90.5129 16.45 86.9259 14.7805 82.875ZM12.5005 4.5C12.5005 4.10218 12.6585 3.72064 12.9398 3.43934C13.2212 3.15804 13.6027 3 14.0005 3H53.0005C53.3983 3 53.7799 3.15804 54.0612 3.43934C54.3425 3.72064 54.5005 4.10218 54.5005 4.5V9H12.5005V4.5ZM18.5005 72C18.5005 72.585 18.5005 73.95 15.9205 73.95C11.8105 73.95 5.00051 70.095 5.00051 66C4.99467 65.1543 5.12639 64.3134 5.39051 63.51C8.27452 66.1641 11.9796 67.752 15.8905 68.01H16.2655C16.9029 68.4753 17.4326 69.0726 17.8183 69.7612C18.204 70.4498 18.4367 71.2134 18.5005 72ZM15.9205 58.95H16.2955C16.9348 59.4248 17.4631 60.0329 17.8438 60.7323C18.2246 61.4316 18.4487 62.2054 18.5005 63C18.5005 63.585 18.5005 64.95 15.9205 64.95C11.8105 64.95 5.00051 61.095 5.00051 57C4.99467 56.1543 5.12639 55.3134 5.39051 54.51C8.2908 57.1486 12.0066 58.7154 15.9205 58.95ZM5.00051 72.18C7.95298 75.0157 11.8191 76.7067 15.9055 76.95C16.7002 76.9619 17.4912 76.8402 18.2455 76.59C18.4053 77.0434 18.4914 77.5194 18.5005 78C18.5005 78.585 18.5005 79.95 15.9205 79.95C11.8705 79.95 5.21051 76.2 5.00051 72.18Z" fill="#282D33"/>
<path d="M36.5005 4.5H30.5005C30.1027 4.5 29.7211 4.65804 29.4398 4.93934C29.1585 5.22064 29.0005 5.60218 29.0005 6C29.0005 6.39782 29.1585 6.77936 29.4398 7.06066C29.7211 7.34196 30.1027 7.5 30.5005 7.5H36.5005C36.8983 7.5 37.2798 7.34196 37.5611 7.06066C37.8425 6.77936 38.0005 6.39782 38.0005 6C38.0005 5.60218 37.8425 5.22064 37.5611 4.93934C37.2798 4.65804 36.8983 4.5 36.5005 4.5Z" fill="#282D33"/>
<path d="M32.0005 73.5C31.6027 73.5 31.2211 73.658 30.9398 73.9393C30.6585 74.2206 30.5005 74.6022 30.5005 75C30.5005 75.3978 30.6585 75.7794 30.9398 76.0607C31.2211 76.342 31.6027 76.5 32.0005 76.5H35.0005C35.3983 76.5 35.7798 76.342 36.0611 76.0607C36.3425 75.7794 36.5005 75.3978 36.5005 75C36.5005 74.6022 36.3425 74.2206 36.0611 73.9393C35.7798 73.658 35.3983 73.5 35.0005 73.5H32.0005Z" fill="#282D33"/>
<path d="M45.5005 72C45.8983 72 46.2798 71.842 46.5611 71.5607C46.8425 71.2794 47.0005 70.8978 47.0005 70.5C47.0005 70.1022 46.8425 69.7206 46.5611 69.4393C46.2798 69.158 45.8983 69 45.5005 69H24.5005C24.1027 69 23.7211 69.158 23.4398 69.4393C23.1585 69.7206 23.0005 70.1022 23.0005 70.5C23.0005 70.8978 23.1585 71.2794 23.4398 71.5607C23.7211 71.842 24.1027 72 24.5005 72H45.5005Z" fill="#282D33"/>
<path d="M35.0005 51H26.0005V54H35.0005V51Z" fill="#282D33"/>
<path d="M41.0005 51H38.0005V54H41.0005V51Z" fill="#282D33"/>
<path d="M41.0005 57H32.0005V60H41.0005V57Z" fill="#282D33"/>
<path d="M29.0005 57H26.0005V60H29.0005V57Z" fill="#282D33"/>
<path d="M50.0005 31.5C50.0005 28.2366 49.0328 25.0465 47.2197 22.3331C45.4067 19.6197 42.8298 17.5048 39.8148 16.256C36.7998 15.0071 33.4822 14.6804 30.2815 15.3171C27.0808 15.9537 24.1408 17.5252 21.8332 19.8327C19.5257 22.1403 17.9542 25.0803 17.3175 28.281C16.6809 31.4817 17.0076 34.7993 18.2565 37.8143C19.5053 40.8293 21.6202 43.4062 24.3336 45.2193C27.047 47.0323 30.2371 48 33.5005 48C37.8766 48 42.0734 46.2616 45.1678 43.1673C48.2621 40.0729 50.0005 35.8761 50.0005 31.5ZM33.5005 45C30.8304 45 28.2204 44.2082 26.0003 42.7248C23.7802 41.2414 22.0499 39.133 21.0281 36.6662C20.0063 34.1994 19.739 31.485 20.2599 28.8663C20.7808 26.2475 22.0665 23.8421 23.9546 21.9541C25.8426 20.0661 28.248 18.7803 30.8668 18.2594C33.4855 17.7385 36.1999 18.0059 38.6667 19.0276C41.1335 20.0494 43.2419 21.7797 44.7253 23.9998C46.2087 26.2199 47.0005 28.83 47.0005 31.5C47.0005 33.2729 46.6513 35.0283 45.9729 36.6662C45.2944 38.3041 44.3 39.7924 43.0464 41.0459C41.7928 42.2995 40.3046 43.2939 38.6667 43.9724C37.0288 44.6508 35.2733 45 33.5005 45Z" fill="#282D33"/>
<path d="M34.7788 39C36.5079 39 38.1704 38.3452 39.5005 37.1012L37.6384 35.1369C36.8404 35.8571 35.8429 36.3155 34.7788 36.3155C33.1828 36.3155 31.7862 35.3333 30.9217 33.8274H35.7764V31.5357H30.2566C30.2566 31.2738 30.1901 31.0119 30.1901 30.75C30.1901 30.4881 30.2566 30.2262 30.2566 29.9643H35.7764V27.6726H30.9217C31.7197 26.1667 33.1828 25.1845 34.7788 25.1845C35.8429 25.1845 36.7739 25.5774 37.6384 26.3631L39.5005 24.3988C38.1704 23.1548 36.5079 22.5 34.7788 22.5C31.7197 22.5 29.0596 24.6607 27.9956 27.6726H26.0005V29.9643H27.53C27.53 30.2262 27.4635 30.4881 27.4635 30.75C27.4635 31.0119 27.53 31.2738 27.53 31.5357H26.0005V33.8274H27.9956C29.0596 36.8393 31.7197 39 34.7788 39Z" fill="#282D33"/>
</g>
<defs>
<filter id="filter0_d" x="0" y="0" width="70.0061" height="102" filterUnits="userSpaceOnUse" color-interpolation-filters="sRGB">
<feFlood flood-opacity="0" result="BackgroundImageFix"/>
<feColorMatrix in="SourceAlpha" type="matrix" values="0 0 0 0 0 0 0 0 0 0 0 0 0 0 0 0 0 0 127 0"/>
<feOffset dy="4"/>
<feGaussianBlur stdDeviation="1"/>
<feColorMatrix type="matrix" values="0 0 0 0 0 0 0 0 0 0 0 0 0 0 0 0 0 0 0.05 0"/>
<feBlend mode="normal" in2="BackgroundImageFix" result="effect1_dropShadow"/>
<feBlend mode="normal" in="SourceGraphic" in2="effect1_dropShadow" result="shape"/>
</filter>
</defs>
</svg>
