<svg width="95" height="86" viewBox="0 0 95 86" fill="none" xmlns="http://www.w3.org/2000/svg">
<g filter="url(#filter0_d)">
<path d="M40.8466 67.3587V67.7278C40.8466 68.0969 41.1234 68.466 41.5848 68.466H53.3956C53.7647 68.466 54.1338 68.1892 54.1338 67.7278V67.3587C54.1338 66.436 54.872 65.6978 55.7947 65.6978H77.2018C78.1246 65.6978 78.8627 66.436 78.8627 67.3587C78.8627 68.2814 78.1246 69.0196 77.2018 69.0196H57.0865C56.5329 70.5882 55.0565 71.7878 53.3033 71.7878H41.5848C39.8316 71.7878 38.3552 70.6805 37.8016 69.0196H17.8708C16.9481 69.0196 16.2099 68.2814 16.2099 67.3587C16.2099 66.436 16.9481 65.6978 17.8708 65.6978H39.278C40.2007 65.7901 40.8466 66.436 40.8466 67.3587ZM91.3195 65.7901H86.2445V23.0681C86.2445 22.9758 86.2445 22.9758 86.2445 22.8835C85.9677 19.9308 83.5686 17.7163 80.7082 17.7163H70.9273C70.0046 17.7163 69.2664 18.4544 69.2664 19.3772C69.2664 20.2999 70.0046 21.0381 70.9273 21.0381H80.7082C81.9077 21.0381 82.9227 22.0531 83.015 23.2526V67.451C83.015 68.3737 83.7532 69.1119 84.6759 69.1119H89.7509V71.88C89.7509 74.6482 87.5363 76.8627 84.7682 76.8627H10.3045C7.53633 76.8627 5.3218 74.6482 5.3218 71.88V69.1119H10.3968C11.3195 69.1119 12.0577 68.3737 12.0577 67.451V23.1603C12.0577 21.9608 12.9804 21.0381 14.1799 21.0381H23.8685C24.7912 21.0381 25.5294 20.2999 25.5294 19.3772C25.5294 18.4544 24.7912 17.7163 23.8685 17.7163H14.0877C11.1349 17.7163 8.73587 20.1153 8.73587 23.0681V65.7901H3.6609C2.73818 65.7901 2 66.5283 2 67.451V71.7878C2 76.3091 5.69089 80 10.2122 80H84.5836C89.105 80 92.7958 76.3091 92.7958 71.7878V67.451C92.8881 66.436 92.1499 65.7901 91.3195 65.7901ZM33.0957 25.2826L32.7266 15.2249C32.6344 11.1649 34.0185 7.38178 36.8789 4.52134C39.6471 1.6609 43.4302 0 47.4902 0C51.5502 0 55.2411 1.56863 58.1015 4.52134C60.8697 7.38178 62.346 11.2572 62.2537 15.2249L61.8847 25.2826C61.7001 29.6194 59.7624 33.4025 56.6251 35.8939V35.9862C56.6251 36.1707 57.3633 41.6148 73.3264 45.6747C78.1246 46.8743 80.5236 51.4879 80.0623 58.2238C79.97 59.0542 79.3241 59.7001 78.4937 59.7001H78.4014C77.4787 59.6078 76.8328 58.8697 76.925 57.9469C77.1096 54.9942 76.8328 49.827 72.5882 48.7197C58.5629 45.2134 54.7797 40.2307 53.7647 37.6471C51.827 38.5698 49.7047 39.1234 47.4902 39.1234C45.2757 39.1234 43.1534 38.5698 41.2157 37.7393C40.293 40.2307 36.6021 45.1211 22.3922 48.6274C18.1476 49.7347 17.8708 54.8097 18.0554 57.8547C18.1476 58.7774 17.4095 59.5156 16.579 59.6078H16.4867C15.6563 59.6078 14.9181 58.9619 14.9181 58.1315C14.4567 51.3956 16.8558 46.782 21.654 45.5825C37.8016 41.5225 38.3552 36.263 38.3552 36.1707C38.3552 36.0784 38.3552 35.9862 38.3552 35.8939C35.218 33.4025 33.2803 29.6194 33.0957 25.2826ZM35.9562 15.1326L36.3253 25.1903C36.5098 31.2803 41.4002 35.9862 47.4902 35.9862C53.5802 35.9862 58.4706 31.2803 58.6551 25.1903L59.0242 15.1326C59.1165 11.9954 58.0092 9.04268 55.7947 6.73587C53.5802 4.42907 50.6274 3.22953 47.4902 3.22953C44.3529 3.22953 41.4002 4.52134 39.1857 6.73587C36.9712 8.9504 35.8639 11.9954 35.9562 15.1326Z" fill="#282D33"/>
</g>
<defs>
<filter id="filter0_d" x="0" y="0" width="94.8037" height="86" filterUnits="userSpaceOnUse" color-interpolation-filters="sRGB">
<feFlood flood-opacity="0" result="BackgroundImageFix"/>
<feColorMatrix in="SourceAlpha" type="matrix" values="0 0 0 0 0 0 0 0 0 0 0 0 0 0 0 0 0 0 127 0"/>
<feOffset dy="4"/>
<feGaussianBlur stdDeviation="1"/>
<feColorMatrix type="matrix" values="0 0 0 0 0 0 0 0 0 0 0 0 0 0 0 0 0 0 0.05 0"/>
<feBlend mode="normal" in2="BackgroundImageFix" result="effect1_dropShadow"/>
<feBlend mode="normal" in="SourceGraphic" in2="effect1_dropShadow" result="shape"/>
</filter>
</defs>
</svg>
