<svg width="128" height="82" viewBox="0 0 128 82" fill="none" xmlns="http://www.w3.org/2000/svg">
<g filter="url(#filter0_d)">
<path d="M69.1879 18.033C69.0879 18.012 68.9869 18.001 68.8809 18.001H68.6249C68.6189 18.001 68.6129 18 68.6069 18C68.6009 18 68.5969 18.001 68.5909 18.001H58.8319C51.0569 18.001 41.1919 27.889 41.1919 39.001C41.1919 50.581 49.1049 60.001 58.8319 60.001H67.7729C68.0519 60.015 68.3259 60.048 68.6069 60.048C78.8559 60.047 87.1939 50.618 87.1939 39.024C87.1939 27.653 79.1669 18.384 69.1879 18.033ZM58.8329 57.001C56.4979 57.001 54.2979 56.308 52.3369 55.106C53.0689 55.036 53.6579 54.444 53.6919 53.688C53.7279 52.86 53.0879 52.159 52.2599 52.124L49.2559 51.989C49.0879 51.981 48.9289 52.007 48.7769 52.05C48.2439 51.427 47.7499 50.759 47.2969 50.044L48.1269 50.081C48.1489 50.081 48.1719 50.081 48.1929 50.081C48.9919 50.081 49.6559 49.452 49.6909 48.647C49.7259 47.819 49.0849 47.118 48.2569 47.083L45.7259 46.972C45.4729 46.349 45.2509 45.704 45.0579 45.042H46.6939C47.5229 45.042 48.1939 44.37 48.1939 43.542C48.1939 42.714 47.5229 42.042 46.6939 42.042H44.4199C44.3259 41.372 44.2669 40.692 44.2349 40.001H46.6939C47.5229 40.001 48.1939 39.329 48.1939 38.501C48.1939 37.673 47.5229 37.001 46.6939 37.001H44.3209C44.4019 36.321 44.5289 35.655 44.6859 35.001H47.1939C48.0229 35.001 48.6939 34.329 48.6939 33.501C48.6939 32.673 48.0229 32.001 47.1939 32.001H45.6669C45.9629 31.308 46.3089 30.647 46.6749 30.001H48.1939C49.0229 30.001 49.6939 29.329 49.6939 28.501C49.6939 27.841 49.2639 27.286 48.6709 27.085C48.9939 26.689 49.3259 26.307 49.6699 25.942H52.1939C53.0229 25.942 53.6939 25.27 53.6939 24.442C53.6939 23.882 53.3829 23.399 52.9289 23.141C54.9549 21.778 57.0419 21 58.8329 21H59.0889C53.6699 24.679 50.0239 31.37 50.0239 39.024C50.0239 46.645 53.6399 53.313 59.0209 57H58.8329V57.001ZM68.6079 57.047C60.0149 57.047 53.0239 48.963 53.0239 39.024C53.0239 29.086 60.0149 21 68.6079 21C77.2019 21 84.1939 29.086 84.1939 39.024C84.1939 48.963 77.2019 57.047 68.6079 57.047Z" fill="#282D33"/>
<g filter="url(#filter1_d)">
<path d="M71.4439 30.5185C69.7663 30.5185 68.3584 30.9281 67.2201 31.7474C66.5411 32.2328 65.927 32.9206 65.3778 33.8107C64.8186 34.7311 64.4891 35.606 64.3893 36.4354H74.6042L74.1998 38.4683H64.1496C64.1396 38.6807 64.1346 38.883 64.1346 39.0752C64.1346 39.854 64.1396 40.3193 64.1496 40.471H73.7954L73.376 42.504H64.4641C64.8835 44.8201 65.892 46.4637 67.4897 47.4347C68.638 48.1326 69.8812 48.4815 71.2192 48.4815C73.0865 48.4815 74.5443 47.9859 75.5928 46.9947V50.1201C74.3446 50.7067 72.9666 51 71.4589 51C66.9455 51 63.895 49.0985 62.3073 45.2955C61.9878 44.5268 61.7132 43.5963 61.4835 42.504H59.1919L59.6113 40.471H61.184C61.154 40.0462 61.139 39.586 61.139 39.0904C61.139 38.8881 61.144 38.6807 61.154 38.4683H59.1919L59.6113 36.4354H61.3487C61.9678 33.1381 63.5804 30.7713 66.1866 29.3351C67.7942 28.445 69.5666 28 71.5038 28C73.3611 28 74.9238 28.4096 76.1919 29.2289L75.5928 32.0508C74.3746 31.0292 72.9916 30.5185 71.4439 30.5185Z" fill="#282D33"/>
<path d="M67.2783 31.8287L67.2785 31.8285C68.3967 31.0238 69.7831 30.6185 71.4439 30.6185C72.9674 30.6185 74.3278 31.1205 75.5285 32.1274L75.656 32.2343L75.6906 32.0716L76.2897 29.2497L76.304 29.1823L76.2462 29.1449C74.9585 28.313 73.3759 27.9 71.5038 27.9C69.5507 27.9 67.7615 28.3489 66.1383 29.2475C63.5241 30.6882 61.901 33.0553 61.266 36.3354H59.6113H59.5298L59.5133 36.4152L59.094 38.4481L59.0692 38.5683H59.1919H61.0496C61.0426 38.7458 61.039 38.9198 61.039 39.0904C61.039 39.5467 61.0517 39.9736 61.077 40.371H59.6113H59.5298L59.5133 40.4508L59.094 42.4838L59.0692 42.604H59.1919H61.4025C61.6296 43.6664 61.9002 44.5767 62.215 45.3339L62.215 45.334C63.0156 47.2518 64.1877 48.6955 65.733 49.6587C67.2778 50.6216 69.1882 51.1 71.4589 51.1C72.98 51.1 74.3726 50.804 75.6353 50.2106L75.6928 50.1835V50.1201V46.9947V46.7626L75.5241 46.9221C74.4992 47.891 73.0687 48.3815 71.2192 48.3815C69.8996 48.3815 68.6744 48.0377 67.5416 47.3492C66.0014 46.4132 65.0127 44.8373 64.5845 42.604H73.376H73.4575L73.474 42.5242L73.8934 40.4912L73.9182 40.371H73.7954H64.2451C64.2382 40.1632 64.2346 39.7324 64.2346 39.0752C64.2346 38.9136 64.2382 38.7447 64.2453 38.5683H74.1998H74.2819L74.2979 38.4878L74.7023 36.4549L74.7261 36.3354H74.6042H64.5034C64.6164 35.5566 64.9347 34.7326 65.4631 33.8629C66.007 32.9815 66.6125 32.3047 67.2783 31.8287Z" stroke="#282D33" stroke-width="0.2"/>
</g>
<path d="M57.4995 8.0459L57.4995 11.0034L54.5435 11.0034L54.5435 8.0459L57.4995 8.0459Z" fill="#282D33"/>
<path d="M63.4111 8.0459L63.4111 11.0034L60.4551 11.0034L60.4551 8.0459L63.4111 8.0459Z" fill="#282D33"/>
<path d="M51.5874 8.0459L51.5874 11.0034L48.6313 11.0034L48.6313 8.0459L51.5874 8.0459Z" fill="#282D33"/>
<path d="M45.7861 8.04587L28.0105 8.04587L28.0105 0.644443C28.0105 0.116095 27.4108 -0.187553 26.9857 0.128241L2.25962 18.4838C1.91346 18.7388 1.91346 19.2611 2.25962 19.5162L26.9857 37.8717C27.4108 38.1875 28.0105 37.8839 28.0105 37.3555L28.0105 29.9541L48.7466 29.9541L48.7466 26.9965L25.053 26.9965L25.053 32.7659L6.50917 19L25.053 5.23408L25.053 11.0034L45.7861 11.0034L45.7861 8.04587Z" fill="#282D33"/>
<path d="M70.104 67.9541L70.104 64.9966L73.0601 64.9966L73.0601 67.9541L70.104 67.9541Z" fill="#282D33"/>
<path d="M64.1924 67.9541L64.1924 64.9966L67.1484 64.9966L67.1484 67.9541L64.1924 67.9541Z" fill="#282D33"/>
<path d="M76.0162 67.9541L76.0162 64.9966L78.9722 64.9966L78.9722 67.9541L76.0162 67.9541Z" fill="#282D33"/>
<path d="M81.8175 67.9541L99.593 67.9541L99.593 75.3556C99.593 75.8839 100.193 76.1876 100.618 75.8718L125.344 57.5162C125.69 57.2612 125.69 56.7389 125.344 56.4838L100.618 38.1283C100.193 37.8125 99.593 38.1161 99.593 38.6445L99.593 46.0459L83.8569 46.0459L83.8569 49.0035L102.551 49.0035L102.551 43.2341L121.094 57L102.551 70.7659L102.551 64.9966L81.8175 64.9966L81.8175 67.9541Z" fill="#282D33"/>
</g>
<defs>
<filter id="filter0_d" x="0" y="0" width="127.603" height="82" filterUnits="userSpaceOnUse" color-interpolation-filters="sRGB">
<feFlood flood-opacity="0" result="BackgroundImageFix"/>
<feColorMatrix in="SourceAlpha" type="matrix" values="0 0 0 0 0 0 0 0 0 0 0 0 0 0 0 0 0 0 127 0"/>
<feOffset dy="4"/>
<feGaussianBlur stdDeviation="1"/>
<feColorMatrix type="matrix" values="0 0 0 0 0 0 0 0 0 0 0 0 0 0 0 0 0 0 0.05 0"/>
<feBlend mode="normal" in2="BackgroundImageFix" result="effect1_dropShadow"/>
<feBlend mode="normal" in="SourceGraphic" in2="effect1_dropShadow" result="shape"/>
</filter>
<filter id="filter1_d" x="56.9463" y="27.8" width="21.4697" height="29.4" filterUnits="userSpaceOnUse" color-interpolation-filters="sRGB">
<feFlood flood-opacity="0" result="BackgroundImageFix"/>
<feColorMatrix in="SourceAlpha" type="matrix" values="0 0 0 0 0 0 0 0 0 0 0 0 0 0 0 0 0 0 127 0"/>
<feOffset dy="4"/>
<feGaussianBlur stdDeviation="1"/>
<feColorMatrix type="matrix" values="0 0 0 0 0 0 0 0 0 0 0 0 0 0 0 0 0 0 0.05 0"/>
<feBlend mode="normal" in2="BackgroundImageFix" result="effect1_dropShadow"/>
<feBlend mode="normal" in="SourceGraphic" in2="effect1_dropShadow" result="shape"/>
</filter>
</defs>
</svg>
