<svg width="100" height="96" viewBox="0 0 100 96" fill="none" xmlns="http://www.w3.org/2000/svg">
<g filter="url(#filter0_d)">
<path d="M97.0082 87.9629C91.9579 70.0434 76.9024 69.6408 72.3802 69.9517C71.7847 68.5644 70.5062 66.3559 67.9096 64.3985C72.8765 61.5162 77.1804 56.7403 77.1804 48.7713V42.2453C79.3362 41.5835 80.9284 39.7019 80.9284 37.4096V30.4053C80.9284 28.0851 79.2965 26.1955 77.1049 25.5577C76.3347 11.3497 63.5026 0 47.796 0C32.2084 0 19.4518 11.1782 18.5068 25.2388C16.2199 25.8686 14.5325 27.8778 14.5325 30.2817V37.5332C14.5325 40.4394 16.9862 42.8034 20.0037 42.8034C20.8811 42.8034 21.5918 42.0898 21.5918 41.2088C21.5918 41.1291 21.5561 41.0613 21.5481 40.9856C21.56 40.9098 21.5918 40.842 21.5918 40.7623V26.8971C21.5918 13.8213 33.344 3.18524 47.796 3.18524C62.248 3.18524 74.0001 13.8213 74.0001 26.8971V48.7673C74.0001 61.7315 60.2906 64.6895 54.9703 65.3473C54.3907 64.53 53.4576 63.96 52.346 63.96H48.0143C46.2436 63.96 44.7984 65.3313 44.7984 67.0057V67.2489C44.7984 68.9232 46.2475 70.2946 48.0143 70.2946H52.346C53.6403 70.2946 54.752 69.5491 55.2602 68.4966C56.5505 68.3252 58.3054 68.0103 60.2668 67.488L49.531 77.7334L35.1465 64.0158V60.4199C36.6155 61.3607 38.1719 62.1979 39.8752 62.8039C40.0538 62.8676 40.2325 62.8955 40.4072 62.8955C41.0623 62.8955 41.6737 62.4849 41.904 61.8311C42.1978 61.0019 41.765 60.089 40.9392 59.798C33.2447 57.0672 28.0753 50.047 28.0753 42.333V23.4727C32.6015 22.9983 36.417 20.5665 38.4538 17.1381C42.8569 26.9809 54.1128 32.1036 65.0034 32.1036C66.2183 32.1036 67.4094 31.9401 68.6044 31.8125V46.6863C68.6044 53.2721 64.785 57.1828 55.8319 59.7701C54.9862 60.0133 54.5018 60.8983 54.744 61.7434C54.9465 62.4451 55.5818 62.8995 56.2726 62.8995C56.4155 62.8995 56.5624 62.8796 56.7093 62.8358C63.181 60.9701 71.7847 57.2626 71.7847 46.6903V30.1661C71.7847 30.1143 71.7609 30.0704 71.7529 30.0186C71.7489 29.9548 71.7688 29.899 71.7609 29.8352C71.745 29.7475 71.6973 29.6797 71.6695 29.596C71.6576 29.5681 71.6497 29.5402 71.6378 29.5163C71.3599 28.8346 70.6492 28.3921 69.9385 28.5197C57.4478 30.5807 42.4876 24.7165 40.0459 11.6766C40.0459 11.6526 40.0538 11.6287 40.0538 11.6048C40.0538 10.7238 39.3392 10.0102 38.4657 10.0102C37.5922 10.0102 36.8776 10.7238 36.8776 11.6048C36.8776 16.4724 32.2164 20.431 26.4912 20.431C25.6137 20.431 24.903 21.1446 24.903 22.0256V42.337C24.903 48.3407 27.587 53.9418 31.9742 57.9881V63.8125C28.8178 65.8894 27.3448 68.4289 26.6857 69.9597C22.1595 69.6527 7.112 70.0554 2.06174 87.9709C1.81955 88.816 2.31187 89.701 3.15358 89.9402C3.30048 89.9801 3.44342 90 3.58635 90C4.28116 90 4.91641 89.5415 5.11492 88.8399C9.84756 72.0367 24.1924 72.83 27.0192 73.1728L42.7814 88.4971C43.111 88.816 43.5596 88.9675 44.0043 88.9436C44.4569 88.9117 44.8738 88.6844 45.1477 88.3217L49.531 82.5532L53.9222 88.3137C54.1961 88.6765 54.613 88.8997 55.0656 88.9356C55.5222 88.9675 55.9629 88.808 56.2885 88.4891L72.0467 73.1649C74.8577 72.826 89.2144 72.0287 93.955 88.8319C94.1535 89.5336 94.7888 89.992 95.4836 89.992C95.6265 89.992 95.7694 89.9721 95.9163 89.9322C96.7541 89.693 97.2464 88.812 97.0082 87.9629ZM17.7128 37.5332V30.2817C17.7128 29.6957 17.9828 29.1695 18.4155 28.7908V39.0242C17.9828 38.6455 17.7128 38.1192 17.7128 37.5332ZM77.7481 37.4096C77.7481 37.9119 77.5218 38.3584 77.1764 38.7053V29.1097C77.5218 29.4565 77.7481 29.903 77.7481 30.4053V37.4096ZM43.7025 84.9531L29.5841 71.2234C30.0208 70.1909 31.0888 68.3451 33.3797 66.7306L47.4029 80.1014L43.7025 84.9531ZM55.3555 84.9531L51.6551 80.1014L65.6823 66.7306C67.9692 68.3451 69.0372 70.1909 69.474 71.2234L55.3555 84.9531Z" fill="#282D33"/>
</g>
<defs>
<filter id="filter0_d" x="0" y="0" width="99.0682" height="96" filterUnits="userSpaceOnUse" color-interpolation-filters="sRGB">
<feFlood flood-opacity="0" result="BackgroundImageFix"/>
<feColorMatrix in="SourceAlpha" type="matrix" values="0 0 0 0 0 0 0 0 0 0 0 0 0 0 0 0 0 0 127 0"/>
<feOffset dy="4"/>
<feGaussianBlur stdDeviation="1"/>
<feColorMatrix type="matrix" values="0 0 0 0 0 0 0 0 0 0 0 0 0 0 0 0 0 0 0.05 0"/>
<feBlend mode="normal" in2="BackgroundImageFix" result="effect1_dropShadow"/>
<feBlend mode="normal" in="SourceGraphic" in2="effect1_dropShadow" result="shape"/>
</filter>
</defs>
</svg>
