<svg width="107" height="67" viewBox="0 0 107 67" fill="none" xmlns="http://www.w3.org/2000/svg">
<g filter="url(#filter0_d)">
<path d="M103.485 0H46.7461C46.3444 0 45.9591 0.159583 45.675 0.443646C45.391 0.727708 45.2314 1.11298 45.2314 1.51471C45.2314 1.91643 45.391 2.3017 45.675 2.58577C45.9591 2.86983 46.3444 3.02941 46.7461 3.02941H101.971V57.5588H32.5972C32.1955 57.5588 31.8102 57.7184 31.5262 58.0025C31.2421 58.2865 31.0825 58.6718 31.0825 59.0735C31.0825 59.4753 31.2421 59.8605 31.5262 60.1446C31.8102 60.4286 32.1955 60.5882 32.5972 60.5882H103.485C103.887 60.5882 104.272 60.4286 104.557 60.1446C104.841 59.8605 105 59.4753 105 59.0735V1.51471C105 1.11298 104.841 0.727708 104.557 0.443646C104.272 0.159583 103.887 0 103.485 0Z" fill="#282D33"/>
<path d="M44.8829 10.603H53.5001C56.8566 10.603 60.1573 11.4609 63.089 13.0954C66.0206 14.7299 68.4858 17.0867 70.2504 19.9419C72.015 22.7971 73.0205 26.0559 73.1713 29.409C73.3222 32.7621 72.6135 36.0982 71.1124 39.1003C69.6113 42.1024 67.3678 44.671 64.5948 46.5622C61.8218 48.4534 58.6114 49.6043 55.2684 49.9057C51.9255 50.2072 48.561 49.6491 45.4945 48.2845C42.4279 46.9199 39.761 44.794 37.7471 42.1088C37.5061 41.7875 37.1473 41.575 36.7496 41.5182C36.3519 41.4614 35.9479 41.5649 35.6265 41.8059C35.3052 42.0469 35.0927 42.4058 35.0359 42.8034C34.9791 43.2011 35.0826 43.6051 35.3236 43.9265C37.1812 46.3916 39.5209 48.453 42.2004 49.9853H34.4542C34.0524 49.9853 33.6672 50.1449 33.3831 50.429C33.099 50.713 32.9395 51.0983 32.9395 51.5C32.9395 51.9017 33.099 52.287 33.3831 52.5711C33.6672 52.8551 34.0524 53.0147 34.4542 53.0147H85.3089C85.7106 53.0147 86.0959 52.8551 86.38 52.5711C86.664 52.287 86.8236 51.9017 86.8236 51.5C86.8264 49.0905 87.7848 46.7805 89.4886 45.0768C91.1923 43.373 93.5023 42.4146 95.9118 42.4118C96.3136 42.4118 96.6988 42.2522 96.9829 41.9681C97.267 41.6841 97.4265 41.2988 97.4265 40.8971V19.6912C97.4265 19.2895 97.267 18.9042 96.9829 18.6201C96.6988 18.3361 96.3136 18.1765 95.9118 18.1765C93.5023 18.1737 91.1923 17.2153 89.4886 15.5115C87.7848 13.8077 86.8264 11.4977 86.8236 9.08825C86.8236 8.68653 86.664 8.30126 86.38 8.01719C86.0959 7.73313 85.7106 7.57355 85.3089 7.57355H44.8829C44.4812 7.57355 44.0959 7.73313 43.8119 8.01719C43.5278 8.30126 43.3682 8.68653 43.3682 9.08825C43.3682 9.48998 43.5278 9.87525 43.8119 10.1593C44.0959 10.4434 44.4812 10.603 44.8829 10.603ZM83.8896 10.603C84.2294 13.2712 85.4457 15.751 87.3475 17.653C89.2493 19.5551 91.729 20.7718 94.3971 21.112V39.4778C91.7292 39.8179 89.2497 41.0344 87.348 42.9361C85.4462 44.8379 84.2298 47.3174 83.8896 49.9853H64.7877C68.2605 48.0028 71.1473 45.1372 73.1552 41.679C75.1631 38.2207 76.2207 34.293 76.2207 30.2941C76.2207 26.2953 75.1631 22.3675 73.1552 18.9093C71.1473 15.4511 68.2605 12.5854 64.7877 10.603H83.8896Z" fill="#282D33"/>
<path d="M83.0367 31.8088C84.2915 31.8088 85.3088 30.7916 85.3088 29.5368C85.3088 28.2819 84.2915 27.2647 83.0367 27.2647C81.7819 27.2647 80.7646 28.2819 80.7646 29.5368C80.7646 30.7916 81.7819 31.8088 83.0367 31.8088Z" fill="#282D33"/>
<path d="M21.691 10.603H38.3527C38.7545 10.603 39.1397 10.4434 39.4238 10.1593C39.7079 9.87525 39.8674 9.48998 39.8674 9.08825C39.8674 8.68653 39.7079 8.30126 39.4238 8.01719C39.1397 7.73313 38.7545 7.57355 38.3527 7.57355H21.691C21.2893 7.57355 20.904 7.73313 20.6199 8.01719C20.3359 8.30126 20.1763 8.68653 20.1763 9.08825C20.1763 9.48998 20.3359 9.87525 20.6199 10.1593C20.904 10.4434 21.2893 10.603 21.691 10.603Z" fill="#282D33"/>
<path d="M8.05865 10.603H11.0881C11.4898 10.603 11.8751 10.4434 12.1591 10.1593C12.4432 9.87525 12.6028 9.48998 12.6028 9.08825C12.6028 8.68653 12.4432 8.30126 12.1591 8.01719C11.8751 7.73313 11.4898 7.57355 11.0881 7.57355H8.05865C7.65693 7.57355 7.27165 7.73313 6.98759 8.01719C6.70353 8.30126 6.54395 8.68653 6.54395 9.08825C6.54395 9.48998 6.70353 9.87525 6.98759 10.1593C7.27165 10.4434 7.65693 10.603 8.05865 10.603Z" fill="#282D33"/>
<path d="M24.7206 39.3823H17.147C16.7453 39.3823 16.36 39.5419 16.076 39.826C15.7919 40.11 15.6323 40.4953 15.6323 40.897C15.6323 41.2988 15.7919 41.684 16.076 41.9681C16.36 42.2522 16.7453 42.4117 17.147 42.4117H24.7206C25.1223 42.4117 25.5076 42.2522 25.7916 41.9681C26.0757 41.684 26.2353 41.2988 26.2353 40.897C26.2353 40.4953 26.0757 40.11 25.7916 39.826C25.5076 39.5419 25.1223 39.3823 24.7206 39.3823Z" fill="#282D33"/>
<path d="M35.9734 31.8088C35.9734 31.4071 35.8138 31.0218 35.5297 30.7378C35.2457 30.4537 34.8604 30.2941 34.4587 30.2941H28.5074C28.1057 30.2941 27.7204 30.4537 27.4363 30.7378C27.1523 31.0218 26.9927 31.4071 26.9927 31.8088C26.9927 32.2106 27.1523 32.5958 27.4363 32.8799C27.7204 33.164 28.1057 33.3235 28.5074 33.3235H34.4587C34.8604 33.3235 35.2457 33.164 35.5297 32.8799C35.8138 32.5958 35.9734 32.2106 35.9734 31.8088Z" fill="#282D33"/>
<path d="M11.0884 18.1765C10.6867 18.1765 10.3014 18.3361 10.0174 18.6202C9.73331 18.9042 9.57373 19.2895 9.57373 19.6912C9.57373 20.0929 9.73331 20.4782 10.0174 20.7623C10.3014 21.0463 10.6867 21.2059 11.0884 21.2059H23.2061C23.6078 21.2059 23.9931 21.0463 24.2771 20.7623C24.5612 20.4782 24.7208 20.0929 24.7208 19.6912C24.7208 19.2895 24.5612 18.9042 24.2771 18.6202C23.9931 18.3361 23.6078 18.1765 23.2061 18.1765H11.0884Z" fill="#282D33"/>
<path d="M38.3528 19.6912C38.3528 19.2895 38.1932 18.9042 37.9091 18.6202C37.6251 18.3361 37.2398 18.1765 36.8381 18.1765H30.8868C30.4851 18.1765 30.0998 18.3361 29.8157 18.6202C29.5317 18.9042 29.3721 19.2895 29.3721 19.6912C29.3721 20.0929 29.5317 20.4782 29.8157 20.7623C30.0998 21.0463 30.4851 21.2059 30.8868 21.2059H36.8381C37.2398 21.2059 37.6251 21.0463 37.9091 20.7623C38.1932 20.4782 38.3528 20.0929 38.3528 19.6912Z" fill="#282D33"/>
<path d="M3.51471 33.3235H21.6912C22.0929 33.3235 22.4782 33.164 22.7622 32.8799C23.0463 32.5958 23.2059 32.2106 23.2059 31.8088C23.2059 31.4071 23.0463 31.0218 22.7622 30.7378C22.4782 30.4537 22.0929 30.2941 21.6912 30.2941H3.51471C3.11298 30.2941 2.72771 30.4537 2.44365 30.7378C2.15958 31.0218 2 31.4071 2 31.8088C2 32.2106 2.15958 32.5958 2.44365 32.8799C2.72771 33.164 3.11298 33.3235 3.51471 33.3235Z" fill="#282D33"/>
<path d="M23.2059 49.9853H3.51471C3.11298 49.9853 2.72771 50.1449 2.44365 50.4289C2.15958 50.713 2 51.0983 2 51.5C2 51.9017 2.15958 52.287 2.44365 52.5711C2.72771 52.8551 3.11298 53.0147 3.51471 53.0147H23.2059C23.6076 53.0147 23.9929 52.8551 24.2769 52.5711C24.561 52.287 24.7206 51.9017 24.7206 51.5C24.7206 51.0983 24.561 50.713 24.2769 50.4289C23.9929 50.1449 23.6076 49.9853 23.2059 49.9853Z" fill="#282D33"/>
<g filter="url(#filter1_d)">
<path d="M55.7898 22.0031C54.276 22.0031 53.0056 22.3738 51.9784 23.1154C51.3656 23.5549 50.8115 24.1774 50.3159 24.9831C49.8113 25.8162 49.514 26.6082 49.4239 27.3589H58.6416L58.2767 29.1991H49.2076C49.1986 29.3914 49.1941 29.5745 49.1941 29.7484C49.1941 30.4534 49.1986 30.8745 49.2076 31.0119H57.9118L57.5333 32.8521H49.4914C49.8699 34.9486 50.78 36.4364 52.2216 37.3153C53.2578 37.947 54.3797 38.2629 55.5871 38.2629C57.272 38.2629 58.5876 37.8143 59.5337 36.917V39.746C58.4074 40.277 57.1639 40.5425 55.8033 40.5425C51.7306 40.5425 48.9778 38.8213 47.5452 35.3789C47.2568 34.6831 47.009 33.8409 46.8018 32.8521H44.7339L45.1123 31.0119H46.5315C46.5045 30.6273 46.4909 30.2108 46.4909 29.7622C46.4909 29.5791 46.4954 29.3914 46.5045 29.1991H44.7339L45.1123 27.3589H46.6802C47.2388 24.3743 48.694 22.2319 51.0458 20.9319C52.4965 20.1262 54.0958 19.7234 55.8439 19.7234C57.5198 19.7234 58.93 20.0942 60.0743 20.8358L59.5337 23.3901C58.4344 22.4654 57.1864 22.0031 55.7898 22.0031Z" fill="#282D33"/>
<path d="M52.0366 23.1967L52.0369 23.1965C53.0439 22.4695 54.2929 22.1031 55.7898 22.1031C57.1622 22.1031 58.3875 22.5566 59.4693 23.4666L59.597 23.574L59.6315 23.4108L60.1721 20.8565L60.1864 20.7892L60.1287 20.7518C58.9648 19.9976 57.5347 19.6234 55.8439 19.6234C54.0798 19.6234 52.4636 20.0301 50.9973 20.8444C48.6375 22.149 47.1719 24.2916 46.5974 27.2589H45.1123H45.0308L45.0144 27.3388L44.6359 29.179L44.6112 29.2991H44.7339H46.4001C46.394 29.4565 46.3909 29.6108 46.3909 29.7622C46.3909 30.1716 46.4021 30.5548 46.4246 30.9119H45.1123H45.0308L45.0144 30.9917L44.6359 32.8319L44.6112 32.9521H44.7339H46.7207C46.9254 33.9109 47.1692 34.733 47.4528 35.4172L47.4528 35.4174C48.1759 37.1548 49.2347 38.4632 50.6312 39.3364C52.027 40.2092 53.7529 40.6425 55.8033 40.6425C57.1773 40.6425 58.4355 40.3743 59.5763 39.8365L59.6337 39.8094V39.746V36.917V36.6844L59.4649 36.8445C58.5423 37.7194 57.2542 38.1629 55.5871 38.1629C54.3981 38.1629 53.2943 37.8521 52.2737 37.2299C50.8893 36.386 49.999 34.9659 49.6118 32.9521H57.5333H57.6149L57.6313 32.8722L58.0097 31.032L58.0344 30.9119H57.9118H49.3033C49.2972 30.7208 49.2941 30.3341 49.2941 29.7484C49.2941 29.6051 49.2972 29.4553 49.3034 29.2991H58.2767H58.3588L58.3748 29.2186L58.7397 27.3784L58.7634 27.2589H58.6416H49.5381C49.6412 26.5587 49.9274 25.8176 50.4013 25.0352C50.8915 24.2382 51.4371 23.6267 52.0366 23.1967Z" stroke="#282D33" stroke-width="0.2"/>
</g>
</g>
<defs>
<filter id="filter0_d" x="0" y="0" width="107" height="66.5882" filterUnits="userSpaceOnUse" color-interpolation-filters="sRGB">
<feFlood flood-opacity="0" result="BackgroundImageFix"/>
<feColorMatrix in="SourceAlpha" type="matrix" values="0 0 0 0 0 0 0 0 0 0 0 0 0 0 0 0 0 0 127 0"/>
<feOffset dy="4"/>
<feGaussianBlur stdDeviation="1"/>
<feColorMatrix type="matrix" values="0 0 0 0 0 0 0 0 0 0 0 0 0 0 0 0 0 0 0.05 0"/>
<feBlend mode="normal" in2="BackgroundImageFix" result="effect1_dropShadow"/>
<feBlend mode="normal" in="SourceGraphic" in2="effect1_dropShadow" result="shape"/>
</filter>
<filter id="filter1_d" x="42.4888" y="19.5234" width="19.8099" height="27.2191" filterUnits="userSpaceOnUse" color-interpolation-filters="sRGB">
<feFlood flood-opacity="0" result="BackgroundImageFix"/>
<feColorMatrix in="SourceAlpha" type="matrix" values="0 0 0 0 0 0 0 0 0 0 0 0 0 0 0 0 0 0 127 0"/>
<feOffset dy="4"/>
<feGaussianBlur stdDeviation="1"/>
<feColorMatrix type="matrix" values="0 0 0 0 0 0 0 0 0 0 0 0 0 0 0 0 0 0 0.05 0"/>
<feBlend mode="normal" in2="BackgroundImageFix" result="effect1_dropShadow"/>
<feBlend mode="normal" in="SourceGraphic" in2="effect1_dropShadow" result="shape"/>
</filter>
</defs>
</svg>
