<svg width="78" height="91" viewBox="0 0 78 91" fill="none" xmlns="http://www.w3.org/2000/svg">
<g filter="url(#filter0_d)">
<path d="M22.2565 8.72292C22.2565 7.94755 22.8381 7.36603 23.6135 7.36603H30.9795C31.7548 7.36603 32.3364 7.94755 32.3364 8.72292C32.3364 9.49829 31.7548 10.0798 30.9795 10.0798H23.6135C22.8381 10.0798 22.2565 9.40137 22.2565 8.72292ZM31.7548 77.0525C31.7548 79.4755 29.7195 81.5108 27.2965 81.5108C24.8734 81.5108 22.8381 79.4755 22.8381 77.0525C22.8381 74.6294 24.8734 72.5941 27.2965 72.5941C29.7195 72.4971 31.7548 74.5325 31.7548 77.0525ZM28.9441 77.0525C28.9441 76.0832 28.1687 75.4048 27.2965 75.4048C26.3272 75.4048 25.6488 76.1802 25.6488 77.0525C25.6488 78.0217 26.4242 78.7001 27.2965 78.7001C28.1687 78.7001 28.9441 77.9247 28.9441 77.0525ZM71.2018 61.8358H52.6898V76.5678C52.6898 81.2201 48.9099 85 44.2577 85H10.4322C5.77993 85 2 81.2201 2 76.5678V8.43216C2 3.77994 5.77993 0 10.4322 0H44.2577C48.9099 0 52.6898 3.77994 52.6898 8.43216V23.0673H71.2018C73.8187 23.0673 75.951 25.1995 75.951 27.8164V56.9897C75.951 59.7035 73.8187 61.8358 71.2018 61.8358ZM73.1402 31.8871H19.6397V37.4116H73.1402V31.8871ZM16.9259 57.0867V27.9133C16.9259 25.2965 19.0582 23.1642 21.675 23.1642H44.8392V16.0889H9.94754V68.9111H44.8392V61.8358H21.675C19.0582 61.8358 16.9259 59.7035 16.9259 57.0867ZM21.675 25.878C20.6089 25.878 19.7366 26.7503 19.7366 27.8164V29.0764H73.2372V27.8164C73.2372 26.7503 72.3649 25.878 71.2987 25.878H21.675ZM49.8791 61.8358H47.553V70.268C47.553 71.0433 46.9715 71.6249 46.1961 71.6249H8.49372C7.71835 71.6249 7.13683 71.0433 7.13683 70.268V14.6351C7.13683 13.8598 7.71835 13.2782 8.49372 13.2782H46.1961C46.9715 13.2782 47.553 13.8598 47.553 14.6351V23.0673H49.8791V8.33524C49.8791 5.23376 47.3592 2.7138 44.2577 2.7138H10.4322C7.33067 2.7138 4.81071 5.23376 4.81071 8.33524V76.4709C4.81071 79.5724 7.33067 82.0924 10.4322 82.0924H44.2577C47.3592 82.0924 49.8791 79.5724 49.8791 76.4709V61.8358ZM71.2018 59.0251C72.2679 59.0251 73.1402 58.1528 73.1402 57.0867V40.2224H19.6397V57.0867C19.6397 58.1528 20.512 59.0251 21.5781 59.0251H71.2018ZM40.7685 46.5222H25.8426C25.0673 46.5222 24.4857 47.1038 24.4857 47.8791C24.4857 48.6545 25.0673 49.236 25.8426 49.236H40.7685C41.5439 49.236 42.1254 48.6545 42.1254 47.8791C42.1254 47.1038 41.5439 46.5222 40.7685 46.5222ZM35.1471 51.1745H25.8426C25.0673 51.1745 24.4857 51.756 24.4857 52.5314C24.4857 53.3067 25.0673 53.8883 25.8426 53.8883H35.1471C35.9225 53.8883 36.504 53.3067 36.504 52.5314C36.504 51.756 35.9225 51.1745 35.1471 51.1745ZM66.9373 51.0775C66.9373 54.0821 64.4173 56.6021 61.4128 56.6021C60.3466 56.6021 59.3774 56.3113 58.5051 55.7298C57.6328 56.3113 56.6636 56.6021 55.5975 56.6021C52.5929 56.6021 50.073 54.0821 50.073 51.0775C50.073 48.073 52.5929 45.553 55.5975 45.553C56.6636 45.553 57.6328 45.8438 58.5051 46.4253C59.3774 45.8438 60.3466 45.553 61.4128 45.553C64.5142 45.6499 66.9373 48.073 66.9373 51.0775ZM64.2235 51.0775C64.2235 49.5268 62.9635 48.3637 61.5097 48.3637C60.8312 48.3637 60.1528 48.6545 59.6682 49.0422C59.3774 49.333 58.9897 49.4299 58.602 49.4299C58.2144 49.4299 57.8267 49.333 57.5359 49.0422C57.0513 48.5576 56.3729 48.3637 55.6944 48.3637C54.1437 48.3637 52.9806 49.6237 52.9806 51.0775C52.9806 52.6283 54.2406 53.7913 55.6944 53.7913C56.2759 53.7913 56.7605 53.5975 57.2451 53.3067C57.3421 53.1129 57.439 53.016 57.5359 52.8221C57.8267 52.5314 58.2144 52.4344 58.602 52.4344C58.9897 52.4344 59.3774 52.5314 59.6682 52.8221C59.7651 52.919 59.862 53.1129 59.9589 53.3067C60.4436 53.5975 60.9282 53.7913 61.5097 53.7913C62.9635 53.8883 64.2235 52.6283 64.2235 51.0775Z" fill="#282D33"/>
</g>
<defs>
<filter id="filter0_d" x="0" y="0" width="77.951" height="91" filterUnits="userSpaceOnUse" color-interpolation-filters="sRGB">
<feFlood flood-opacity="0" result="BackgroundImageFix"/>
<feColorMatrix in="SourceAlpha" type="matrix" values="0 0 0 0 0 0 0 0 0 0 0 0 0 0 0 0 0 0 127 0"/>
<feOffset dy="4"/>
<feGaussianBlur stdDeviation="1"/>
<feColorMatrix type="matrix" values="0 0 0 0 0 0 0 0 0 0 0 0 0 0 0 0 0 0 0.05 0"/>
<feBlend mode="normal" in2="BackgroundImageFix" result="effect1_dropShadow"/>
<feBlend mode="normal" in="SourceGraphic" in2="effect1_dropShadow" result="shape"/>
</filter>
</defs>
</svg>
